<svg id="图层_1" data-name="图层 1" xmlns="http://www.w3.org/2000/svg" viewBox="0 0 20 20"><defs><style>.cls-1{fill:#666;}</style></defs><title>画板 1 副本 10</title><path class="cls-1" d="M18.12,10.89l-.67,4.57-1.36-1.32a9.16,9.16,0,0,1-6,2.15,9.49,9.49,0,0,1-6-2.07l-1.24,1.2-.71-4.53,4.66.69L5.55,12.82A6.76,6.76,0,0,0,9.27,14.3V6.85A2.59,2.59,0,0,1,7.5,4.42a2.67,2.67,0,0,1,5.33,0A2.59,2.59,0,0,1,11,6.86c0,1.45,0,7.47,0,7.47a6.53,6.53,0,0,0,3.64-1.59l-1.2-1.17ZM11.54,4.38a1.37,1.37,0,1,0-1.37,1.33A1.35,1.35,0,0,0,11.54,4.38Z"/></svg>