<svg id="图层_1" data-name="图层 1" xmlns="http://www.w3.org/2000/svg" viewBox="0 0 20 20"><defs><style>.cls-1{fill:#666;}</style></defs><title>画板 1 副本 61</title><path class="cls-1" d="M19,7.3,8.84,17.35a4.36,4.36,0,0,1-6.1,0,4.23,4.23,0,0,1,0-6l9.16-9a2.91,2.91,0,0,1,4.07,0,2.82,2.82,0,0,1,0,4l-9.16,9a1.45,1.45,0,0,1-2,0,1.41,1.41,0,0,1,0-2l8.14-8-1-1-8.14,8a2.82,2.82,0,0,0,0,4,2.9,2.9,0,0,0,4.07,0L17,7.3a4.23,4.23,0,0,0,0-6,4.36,4.36,0,0,0-6.11,0L1.2,10.82h0a5.68,5.68,0,0,0,.51,7.54,5.81,5.81,0,0,0,7.6.47h0L20,8.31l-1-1Z"/></svg>