<svg id="图层_1" data-name="图层 1" xmlns="http://www.w3.org/2000/svg" viewBox="0 0 20 20"><defs><style>.cls-1{fill:#666;}</style></defs><title>画板 1 副本 2</title><path class="cls-1" d="M16.81,12.71a4.68,4.68,0,0,1-.45,2.1,4.24,4.24,0,0,1-1.21,1.5,5.61,5.61,0,0,1-2,1,10.41,10.41,0,0,1-2.74.3H4.79V1.67H9.51a19.43,19.43,0,0,1,2.61.13,5.32,5.32,0,0,1,1.66.54,3,3,0,0,1,1.27,1.18,3.55,3.55,0,0,1,.4,1.73,3.21,3.21,0,0,1-.58,1.93,4.16,4.16,0,0,1-1.54,1.28v.09A4.4,4.4,0,0,1,15.88,10,4.07,4.07,0,0,1,16.81,12.71ZM13.25,5.52a2.22,2.22,0,0,0-.19-1,1.49,1.49,0,0,0-.62-.64,3,3,0,0,0-1.22-.36q-.72-.07-1.78-.07H6.91V8.08H9.65A9.74,9.74,0,0,0,11.23,8a2.94,2.94,0,0,0,1.09-.42A1.77,1.77,0,0,0,13,6.73,3.16,3.16,0,0,0,13.25,5.52Zm1.36,7.27a3.4,3.4,0,0,0-.29-1.53,2.32,2.32,0,0,0-1-1A3.52,3.52,0,0,0,12,10a16.74,16.74,0,0,0-1.78-.08H6.91V15.8H9.71A14.68,14.68,0,0,0,12,15.66a3.6,3.6,0,0,0,1.46-.53,2.69,2.69,0,0,0,.88-1A3,3,0,0,0,14.61,12.79Z"/></svg>