<svg id="图层_1" data-name="图层 1" xmlns="http://www.w3.org/2000/svg" viewBox="0 0 20 20"><defs><style>.cls-1{fill:#666;}</style></defs><title>画板 1 副本 12</title><rect class="cls-1" x="6.32" y="13.99" width="7.02" height="1.42" rx="0.71" ry="0.71"/><rect class="cls-1" x="6.32" y="11.1" width="7.02" height="1.42" rx="0.71" ry="0.71"/><rect class="cls-1" x="6.32" y="8.21" width="7.02" height="1.42" rx="0.71" ry="0.71"/><rect class="cls-1" x="6.31" y="5.32" width="4.46" height="1.42" rx="0.71" ry="0.71"/><path class="cls-1" d="M15.87,5.48h-3V2a1,1,0,0,0-1-1H4A1.15,1.15,0,0,0,2.87,2.11V17.82A1.15,1.15,0,0,0,4,19H15.72a1.15,1.15,0,0,0,1.15-1.15V6.48A1,1,0,0,0,15.87,5.48Zm0,12.34a.15.15,0,0,1-.15.15H4a.15.15,0,0,1-.15-.15V2.11A.15.15,0,0,1,4,2h7.62a.19.19,0,0,1,.19.19V5.48a1,1,0,0,0,1,1h2.85a.2.2,0,0,1,.19.19V17.82Z"/></svg>