<svg id="图层_1" data-name="图层 1" xmlns="http://www.w3.org/2000/svg" viewBox="0 0 20 20"><defs><style>.cls-1{fill:#666;}</style></defs><title>画板 1 副本 14</title><path class="cls-1" d="M10.06,17.5a7.5,7.5,0,1,1,7.5-7.5A7.51,7.51,0,0,1,10.06,17.5Zm0-14a6.5,6.5,0,1,0,6.5,6.5A6.51,6.51,0,0,0,10.06,3.5Z"/><path class="cls-1" d="M10.51,12H9.1v-.43a2,2,0,0,1,1-1.84q1-.74.94-1.41a1,1,0,0,0-1-.9q-1.13,0-1.41,1.37L7.11,8.47A2.85,2.85,0,0,1,10.32,6q2.26.12,2.46,2.11a2.45,2.45,0,0,1-1.33,2.19q-1,.63-.94,1.37Zm.16,2.3H9v-1.6h1.68Z"/></svg>