<svg id="图层_1" data-name="图层 1" xmlns="http://www.w3.org/2000/svg" viewBox="0 0 20 20"><defs><style>.cls-1{fill:#666;}.cls-2{fill:#66bbbf;}</style></defs><title>画板 1 副本 88</title><rect class="cls-1" x="0.98" y="1.44" width="18" height="1" rx="0.5" ry="0.5" transform="translate(19.97 3.89) rotate(180)"/><rect class="cls-2" x="10.98" y="4.46" width="8" height="10.92" rx="0.5" ry="0.5" transform="translate(29.97 19.84) rotate(-180)"/><rect class="cls-1" x="0.94" y="14.21" width="8" height="1" rx="0.5" ry="0.5" transform="translate(9.89 29.42) rotate(180)"/><rect class="cls-1" x="0.94" y="17.4" width="18" height="1" rx="0.5" ry="0.5" transform="translate(19.89 35.8) rotate(-180)"/><rect class="cls-1" x="0.98" y="11.02" width="8" height="1" rx="0.5" ry="0.5" transform="translate(9.97 23.04) rotate(-180)"/><rect class="cls-1" x="0.98" y="7.83" width="8" height="1" rx="0.5" ry="0.5" transform="translate(9.97 16.65) rotate(180)"/><rect class="cls-1" x="1.03" y="4.63" width="8" height="1" rx="0.5" ry="0.5" transform="translate(10.05 10.27) rotate(180)"/></svg>