<svg id="图层_1" data-name="图层 1" xmlns="http://www.w3.org/2000/svg" viewBox="0 0 20 20"><defs><style>.cls-1{fill:#666;}</style></defs><title>画板 1 副本 3</title><rect class="cls-1" x="6.49" y="1.66" width="13" height="2" rx="1" ry="1"/><rect class="cls-1" x="6.49" y="9.17" width="13" height="2" rx="1" ry="1"/><rect class="cls-1" x="6.49" y="16.67" width="13" height="2" rx="1" ry="1"/><path class="cls-1" d="M3.6.46V5.79H2.09V.46Z"/><path class="cls-1" d="M.61,12.69v-.53c0-1.77,2.8-2.41,2.8-3.18,0-.3-.19-.48-.58-.48a2,2,0,0,0-1.29.63L.71,8.2A3,3,0,0,1,3,7.23c1.33,0,2.09.72,2.09,1.66,0,1.33-1.66,1.68-2.5,2.51h2.5v1.29Z"/><path class="cls-1" d="M2.81,19.59a3,3,0,0,1-2.25-.92l.87-.86a1.93,1.93,0,0,0,1.25.52c.5,0,.74-.25.74-.58v0c0-.3-.22-.46-.65-.46H2.33v-.91h.45c.42,0,.65-.11.65-.47v0c0-.34-.22-.55-.69-.55a1.55,1.55,0,0,0-1.14.55L.73,15A2.85,2.85,0,0,1,3,14c1.36,0,2.11.73,2.11,1.54v.09c0,.52-.37,1-1.21,1.13.9.12,1.25.58,1.25,1.17V18C5.12,18.91,4.2,19.59,2.81,19.59Z"/></svg>