<svg id="图层_1" data-name="图层 1" xmlns="http://www.w3.org/2000/svg" viewBox="0 0 20 20"><defs><style>.cls-1{fill:#666;}</style></defs><title>画板 1 副本 22</title><path class="cls-1" d="M13,12.44h1.25A2.83,2.83,0,0,0,17,9.53a2.83,2.83,0,0,0-2.75-2.91h-2.5A2.83,2.83,0,0,0,9,9.53a3,3,0,0,0,.12.79H7A4.82,4.82,0,0,1,7,9.53,4.38,4.38,0,0,1,11.22,5h3.5A4.38,4.38,0,0,1,19,9.53,4.38,4.38,0,0,1,14.72,14H13Z"/><path class="cls-1" d="M7,6.62H5.72A2.83,2.83,0,0,0,3,9.53a2.83,2.83,0,0,0,2.75,2.91h2.5A2.83,2.83,0,0,0,11,9.53a3,3,0,0,0-.12-.79h2a4.82,4.82,0,0,1,.07.79A4.38,4.38,0,0,1,8.72,14H5.22A4.38,4.38,0,0,1,1,9.53,4.38,4.38,0,0,1,5.22,5H7Z"/></svg>