<svg id="图层_1" data-name="图层 1" xmlns="http://www.w3.org/2000/svg" viewBox="0 0 20 20"><defs><style>.cls-1{fill:none;}.cls-2{fill:#666;}</style></defs><title>画板 1 副本 45</title><circle class="cls-1" cx="8.8" cy="10.04" r="3"/><path class="cls-1" d="M11.53,1.53l0,0H4.41v17h11v-13l-4.06.21ZM12.8,10a4,4,0,0,1-1,2.58l2.93,2.93-.71.71-3-3A4,4,0,1,1,12.8,10Z"/><path class="cls-2" d="M4.8,10a4,4,0,0,0,6.3,3.26l3,3,.71-.71-2.93-2.93a4,4,0,0,0,1-2.58,4,4,0,0,0-8,0Zm7,0a3,3,0,1,1-3-3A3,3,0,0,1,11.8,10Z"/><path class="cls-2" d="M15.9,5.49h-3V2a1,1,0,0,0-1-1H4A1.15,1.15,0,0,0,2.9,2.12V17.83A1.15,1.15,0,0,0,4,19H15.76a1.15,1.15,0,0,0,1.15-1.15V6.49A1,1,0,0,0,15.9,5.49Zm0,12.34a.15.15,0,0,1-.15.15H4a.15.15,0,0,1-.15-.15V2.12A.15.15,0,0,1,4,2h7.62a.19.19,0,0,1,.19.19V5.49a1,1,0,0,0,1,1h2.85a.2.2,0,0,1,.19.19V17.83Z"/></svg>