<svg id="图层_1" data-name="图层 1" xmlns="http://www.w3.org/2000/svg" viewBox="0 0 20 20"><defs><style>.cls-1{fill:#666;}</style></defs><title>画板 1 副本 46</title><path class="cls-1" d="M7.24,9.77H13v1.16H7.24Zm0,1.88H13v1.16H7.2ZM18.73,5.58a.6.6,0,0,0-.6-.6H15.3V2H4.74V5H1.87a.6.6,0,0,0-.6.6V13H4.74v1.36h0l3.86,3.68h0v0H15.3V13h3.43V7.79a.61.61,0,0,0,0-.06V5.58Zm-1.9.07a.7.7,0,1,1-.7.7A.7.7,0,0,1,16.83,5.65Zm-11-2.52h8.27V5H5.88Zm8.27,6.41v7.57H9.34V13.71H5.88V9.55H4.74v2.08h-1V8.32H16.22v3.31H15.3V9.55Z"/></svg>