<svg id="图层_1" data-name="图层 1" xmlns="http://www.w3.org/2000/svg" viewBox="0 0 20 20"><defs><style>.cls-1{fill:#666;}</style></defs><title>画板 1 副本</title><path id="_路径_" data-name="&lt;路径&gt;" class="cls-1" d="M17.59,9.26c-1-1-5.09-5.11-5.7-5.71a1.33,1.33,0,0,0-1.79.06A1.43,1.43,0,0,0,9.82,5.1C10.06,5.46,13.49,9,13.49,9H3.32A1.21,1.21,0,0,0,2,10.26a1.39,1.39,0,0,0,1.33,1.32c.82,0,10.11,0,10.11,0l-3.38,3.36a1.33,1.33,0,0,0,0,1.82,1.28,1.28,0,0,0,1.77.14c.49-.45,5-4.94,5.82-5.79S17.59,9.26,17.59,9.26Z"/></svg>