<svg id="图层_1" data-name="图层 1" xmlns="http://www.w3.org/2000/svg" viewBox="0 0 20 20"><defs><style>.cls-1{fill:#666;}</style></defs><title>画板 1 副本 98</title><path class="cls-1" d="M18.65,5.47a.35.35,0,0,0-.26-.11,1.18,1.18,0,0,0-.7.4L11,12.23A20.5,20.5,0,0,0,9.84,14l-.15.24.24-.15c.06,0,1.54-.95,1.79-1.18l6.67-6.48C18.68,6.13,18.91,5.73,18.65,5.47Zm-4.16,2a1,1,0,1,1-1-1A1,1,0,0,1,14.49,7.48ZM4.22,10.91a1,1,0,1,1,1-1A1,1,0,0,1,4.22,10.91ZM5.69,7.48a1,1,0,1,1,1,1A1,1,0,0,1,5.69,7.48Zm3.42-1a1,1,0,1,1,1,1A1,1,0,0,1,9.11,6.5Zm7.56,3.32a7,7,0,0,1-6.88,5.86,5.86,5.86,0,0,1-2.1-.39c-.66-.26-1-.57-1-.78s-.06-.22-.09-.34a4.1,4.1,0,0,0-.4-1.1,1.4,1.4,0,0,0-1.25-.72,2,2,0,0,0-.44.05,3.28,3.28,0,0,1-.73.09c-.49,0-1.32-.13-1.34-1C2.3,7,6,4.61,9.65,4.19a7.34,7.34,0,0,1,.83,0,8.75,8.75,0,0,1,3,.51c.18.07.28.12.77.36a4.44,4.44,0,0,1,1.23.93l.59-1A5.37,5.37,0,0,0,14.73,4c-.49-.24-.62-.3-.85-.39A10,10,0,0,0,10.48,3a8.5,8.5,0,0,0-1,.05A10.23,10.23,0,0,0,3.73,5.57a7.59,7.59,0,0,0-2.45,6,2,2,0,0,0,.8,1.61,2.78,2.78,0,0,0,1.7.51,4.43,4.43,0,0,0,1-.12l.19,0c.22,0,.33.2.53,1,0,.13.07.26.1.39a2.62,2.62,0,0,0,1.69,1.52,7.06,7.06,0,0,0,2.53.47,8,8,0,0,0,5.5-2.16A8.28,8.28,0,0,0,17,12.44a7.78,7.78,0,0,0,.83-2.64V9.63h0V9.5Z"/></svg>