<svg id="图层_1" data-name="图层 1" xmlns="http://www.w3.org/2000/svg" viewBox="0 0 20 20"><defs><style>.cls-1{fill:none;}.cls-2{fill:#666;}</style></defs><title>画板 1 副本 44</title><path class="cls-1" d="M8.14,11.86q0,.75,1.22.75,2-.14,2.11-1.69v-.66a3.19,3.19,0,0,1-1.83.56Q8,11,8.14,11.86Z"/><polygon class="cls-2" points="4.24 2.99 6.24 0.99 5.53 0.99 3.53 2.99 4.24 2.99"/><polygon class="cls-2" points="2.99 3.53 0.99 5.53 0.99 6.23 2.99 4.23 2.99 3.53"/><polygon class="cls-2" points="3.53 0.99 0.99 3.53 0.99 4.23 4.24 0.99 3.53 0.99"/><polygon class="cls-2" points="1.53 0.99 0.99 1.53 0.99 2.23 2.23 0.99 1.53 0.99"/><polygon class="cls-2" points="10.27 2.99 12.27 0.99 11.56 0.99 9.56 2.99 10.27 2.99"/><polygon class="cls-2" points="2.99 9.56 0.99 11.56 0.99 12.27 2.99 10.27 2.99 9.56"/><polygon class="cls-2" points="2.99 7.56 0.99 9.56 0.99 10.27 2.99 8.27 2.99 7.56"/><polygon class="cls-2" points="8.27 2.99 10.27 0.99 9.56 0.99 7.56 2.99 8.27 2.99"/><polygon class="cls-2" points="6.27 2.99 8.27 0.99 7.56 0.99 5.56 2.99 6.27 2.99"/><polygon class="cls-2" points="2.99 5.56 0.99 7.56 0.99 8.27 2.99 6.26 2.99 5.56"/><polygon class="cls-2" points="2.99 15.67 0.99 17.67 0.99 18.37 2.99 16.37 2.99 15.67"/><polygon class="cls-2" points="16.38 2.99 18.38 0.99 17.67 0.99 15.67 2.99 16.38 2.99"/><polygon class="cls-2" points="2.99 13.67 0.99 15.67 0.99 16.37 2.99 14.37 2.99 13.67"/><polygon class="cls-2" points="14.38 2.99 16.38 0.99 15.67 0.99 13.67 2.99 14.38 2.99"/><polygon class="cls-2" points="2.99 11.67 0.99 13.67 0.99 14.37 2.99 12.37 2.99 11.67"/><polygon class="cls-2" points="12.38 2.99 14.38 0.99 13.67 0.99 11.67 2.99 12.38 2.99"/><polygon class="cls-2" points="16.99 8.36 18.99 6.36 18.99 5.65 16.99 7.65 16.99 8.36"/><polygon class="cls-2" points="7.65 16.99 5.65 18.99 6.36 18.99 8.36 16.99 7.65 16.99"/><polygon class="cls-2" points="16.99 6.36 18.99 4.36 18.99 3.65 16.99 5.65 16.99 6.36"/><polygon class="cls-2" points="5.65 16.99 3.65 18.99 4.36 18.99 6.36 16.99 5.65 16.99"/><polygon class="cls-2" points="3.65 16.99 1.65 18.99 2.36 18.99 4.36 16.99 3.65 16.99"/><polygon class="cls-2" points="16.99 3.65 16.99 4.36 18.99 2.36 18.99 1.65 16.99 3.65"/><polygon class="cls-2" points="16.99 14.33 18.99 12.33 18.99 11.62 16.99 13.62 16.99 14.33"/><polygon class="cls-2" points="13.62 16.99 11.62 18.99 12.33 18.99 14.33 16.99 13.62 16.99"/><polygon class="cls-2" points="16.99 12.33 18.99 10.33 18.99 9.62 16.99 11.62 16.99 12.33"/><polygon class="cls-2" points="11.62 16.99 9.62 18.99 10.33 18.99 12.33 16.99 11.62 16.99"/><polygon class="cls-2" points="9.62 16.99 7.62 18.99 8.33 18.99 10.33 16.99 9.62 16.99"/><polygon class="cls-2" points="16.99 10.33 18.99 8.33 18.99 7.62 16.99 9.62 16.99 10.33"/><polygon class="cls-2" points="18.36 18.99 18.99 18.36 18.99 17.65 17.65 18.99 18.36 18.99"/><polygon class="cls-2" points="16.36 18.99 18.99 16.36 18.99 15.65 15.65 18.99 16.36 18.99"/><polygon class="cls-2" points="15.65 16.99 13.65 18.99 14.36 18.99 16.36 16.99 15.65 16.99"/><polygon class="cls-2" points="16.99 16.36 18.99 14.36 18.99 13.65 16.99 15.65 16.99 16.36"/><path class="cls-2" d="M6.55,11.91q.09,2,2.58,2a3,3,0,0,0,2.53-1,1.16,1.16,0,0,0,.42.89h1.55A2.48,2.48,0,0,1,13,12V9.24q0-2.86-2.91-2.81T6.73,8.58L8.23,9q.19-1.31,1.83-1.22,1.55-.09,1.41,1.27a4.75,4.75,0,0,1-2.16.47Q6.59,9.8,6.55,11.91Zm4.92-1.64v.66q-.14,1.55-2.11,1.69-1.27,0-1.22-.75t1.5-1A3.19,3.19,0,0,0,11.47,10.27Z"/></svg>