<svg id="图层_1" data-name="图层 1" xmlns="http://www.w3.org/2000/svg" viewBox="0 0 20 20"><defs><style>.cls-1{fill:#666;}</style></defs><title>画板 1 副本 11</title><path class="cls-1" d="M3.77,7.42h.85v5H3.77V10.21H1.32v2.23H.5v-5h.83V9.48H3.77Z"/><path class="cls-1" d="M9.49,8.15H7.82v4.29H7V8.15H5.3V7.42h4.2Z"/><path class="cls-1" d="M14.27,7.42h1v5h-.78v-3q0-.36.07-1.09h0a4.63,4.63,0,0,1-.29.87L13,12.44h-.58l-1.26-3.2c-.11-.32-.2-.61-.27-.87h0q0,.56,0,1.09v3h-.75v-5h1l1.36,3.4a2.53,2.53,0,0,0,.15.41.76.76,0,0,0,0,.17c.08-.23.15-.42.22-.58Z"/><path class="cls-1" d="M16.36,7.42h.85v4.32h2.52v.7H16.36Z"/></svg>