<svg id="图层_1" data-name="图层 1" xmlns="http://www.w3.org/2000/svg" viewBox="0 0 20 20"><defs><style>.cls-1{fill:#666;}</style></defs><title>画板 1 副本 26</title><rect class="cls-1" x="-0.25" y="7.29" width="14" height="2" rx="0.87" ry="0.87" transform="translate(7.84 -2.34) rotate(45)"/><rect class="cls-1" x="-0.25" y="7.29" width="14" height="2" rx="0.87" ry="0.87" transform="translate(17.39 9.38) rotate(135)"/><path class="cls-1" d="M12.86,17v-.66c0-2.21,3.5-3,3.5-4,0-.38-.24-.6-.72-.6a2.53,2.53,0,0,0-1.62.79l-1-1.16a3.7,3.7,0,0,1,2.84-1.21c1.67,0,2.62.9,2.62,2.07,0,1.66-2.08,2.1-3.12,3.14h3.12V17Z"/></svg>