<svg id="图层_1" data-name="图层 1" xmlns="http://www.w3.org/2000/svg" viewBox="0 0 20 20"><defs><style>.cls-1{fill:#666;}</style></defs><title>画板 1 副本 81</title><path class="cls-1" d="M16.36,4.85l.38-.38.77.77,1-1L16.16,2l-1,1L16,3.7l-.38.38a8.44,8.44,0,0,0-4.23-2,1.36,1.36,0,0,0-2.7,0A8.34,8.34,0,0,0,7.1,2.5L8,3.92a6.72,6.72,0,0,1,2-.31A6.84,6.84,0,1,1,4,7.16l-1.32-1a8.47,8.47,0,1,0,15.79,4.27A8.43,8.43,0,0,0,16.36,4.85Z"/><path class="cls-1" d="M10,5.24a.82.82,0,0,0-.82.82V9.35a1.36,1.36,0,0,0,0,2.18v1.1a.82.82,0,0,0,1.64,0v-1.1a1.36,1.36,0,0,0,0-2.18V6.06A.82.82,0,0,0,10,5.24Z"/><polygon class="cls-1" points="5.98 0.75 4.04 5.21 8.91 5.31 8.01 3.92 7.11 2.5 5.98 0.75"/></svg>