<svg id="图层_1" data-name="图层 1" xmlns="http://www.w3.org/2000/svg" viewBox="0 0 20 20"><defs><style>.cls-1{fill:none;}.cls-2{fill:#666;}</style></defs><title>画板 1 副本 34</title><path class="cls-1" d="M6.59,6.69H6.53a3.64,3.64,0,0,1-.33,1.09l-1.58,4H8.38l-1.52-4A3.33,3.33,0,0,1,6.59,6.69Z"/><path class="cls-1" d="M14,14.12q0,.73,1.18.72,1.9-.14,2-1.63v-.63a3.08,3.08,0,0,1-1.77.54Q13.9,13.26,14,14.12Z"/><path class="cls-2" d="M5.61,4.79.88,16.1h2L4,13.38H9l1.09,2.72h2L7.4,4.79Zm-1,7,1.58-4a3.64,3.64,0,0,0,.33-1.09h.05a3.33,3.33,0,0,0,.27,1.09l1.52,4Z"/><path class="cls-2" d="M18.7,14.21V11.58q0-2.76-2.81-2.72t-3.26,2.08l1.45.41q.18-1.27,1.77-1.18,1.5-.09,1.36,1.22a4.58,4.58,0,0,1-2.08.45q-2.63.27-2.67,2.31t2.49,1.95a2.9,2.9,0,0,0,2.45-1,1.12,1.12,0,0,0,.41.86h1.5A2.4,2.4,0,0,1,18.7,14.21Zm-1.5-1q-.14,1.5-2,1.63-1.22,0-1.18-.72t1.45-1a3.08,3.08,0,0,0,1.77-.54Z"/><path class="cls-2" d="M15.13,5.73c-2.07.1-4,.61-4.1,1.08L9.88,6.65c.23-1.71,3.92-2,5.25-2.08v-2l3.38,2.54L15.13,7.64Z"/></svg>