<svg id="图层_1" data-name="图层 1" xmlns="http://www.w3.org/2000/svg" viewBox="0 0 20 20"><defs><style>.cls-1{fill:#666;}</style></defs><title>画板 1 副本 6</title><rect class="cls-1" x="5.25" y="16.86" width="10.58" height="1.76"/><path class="cls-1" d="M15.72,1.17V9a11.88,11.88,0,0,1-.24,2.53,4.58,4.58,0,0,1-.85,1.88A3.8,3.8,0,0,1,13,14.63a7.25,7.25,0,0,1-2.63.41,7.93,7.93,0,0,1-2.15-.25,4.65,4.65,0,0,1-1.49-.69,3.36,3.36,0,0,1-.94-1,5.07,5.07,0,0,1-.52-1.25A7.23,7.23,0,0,1,5,10.44Q5,9.73,5,9V1.17H6.81V9A8.59,8.59,0,0,0,7,11.25a3.16,3.16,0,0,0,.69,1.34,2.29,2.29,0,0,0,1.11.66,5.94,5.94,0,0,0,1.52.18,6,6,0,0,0,1.53-.18A2.28,2.28,0,0,0,13,12.58a3.12,3.12,0,0,0,.68-1.34A8.92,8.92,0,0,0,13.9,9V1.17Z"/></svg>