<svg id="图层_1" data-name="图层 1" xmlns="http://www.w3.org/2000/svg" viewBox="0 0 20 20"><defs><style>.cls-1{fill:#666;}</style></defs><title>画板 1 副本 28</title><path class="cls-1" d="M6,7.75H4.77A1.83,1.83,0,0,1,2.95,5.93V5.57A1.83,1.83,0,0,1,4.77,3.75h6.35a1.83,1.83,0,0,1,1.82,1.82v.35a1.83,1.83,0,0,1-1.82,1.82H10v2h1.16a3.83,3.83,0,0,0,3.82-3.82V5.57a3.83,3.83,0,0,0-3.82-3.82H4.77A3.83,3.83,0,0,0,.95,5.57v.35A3.83,3.83,0,0,0,4.77,9.75H6Z"/><path class="cls-1" d="M15,10.33H13.89v2H15a1.83,1.83,0,0,1,1.82,1.82v.35A1.83,1.83,0,0,1,15,16.33H8.69a1.83,1.83,0,0,1-1.82-1.82v-.35a1.83,1.83,0,0,1,1.82-1.82H9.91v-2H8.69a3.83,3.83,0,0,0-3.82,3.82v.35a3.83,3.83,0,0,0,3.82,3.82H15a3.83,3.83,0,0,0,3.82-3.82v-.35A3.83,3.83,0,0,0,15,10.33Z"/></svg>